<mxfile host="app.diagrams.net" modified="2022-01-04T15:00:27.595Z" agent="5.0 (Macintosh; Intel Mac OS X 10_15_1) AppleWebKit/537.36 (KHTML, like Gecko) Chrome/96.0.4664.93 Safari/537.36" etag="jAwvontv0O8S50VLG3Xd" version="16.1.4" type="github">
  <diagram id="ndqAUKMBPTMdRogB8D8w" name="Page-1">
    <mxGraphModel dx="872" dy="425" grid="0" gridSize="10" guides="1" tooltips="1" connect="1" arrows="1" fold="1" page="1" pageScale="1" pageWidth="827" pageHeight="1169" background="#FFFFFF" math="0" shadow="0">
      <root>
        <mxCell id="0" />
        <mxCell id="1" parent="0" />
        <mxCell id="VPoRFAgZNDj3BXp9n2Gw-12" style="edgeStyle=orthogonalEdgeStyle;rounded=0;orthogonalLoop=1;jettySize=auto;html=1;" parent="1" source="VPoRFAgZNDj3BXp9n2Gw-1" target="VPoRFAgZNDj3BXp9n2Gw-2" edge="1">
          <mxGeometry relative="1" as="geometry">
            <Array as="points">
              <mxPoint x="150" y="200" />
              <mxPoint x="150" y="200" />
            </Array>
          </mxGeometry>
        </mxCell>
        <mxCell id="VPoRFAgZNDj3BXp9n2Gw-51" style="edgeStyle=orthogonalEdgeStyle;rounded=0;orthogonalLoop=1;jettySize=auto;html=1;entryX=0.5;entryY=1;entryDx=0;entryDy=0;fontSize=12;fontColor=#000000;" parent="1" source="VPoRFAgZNDj3BXp9n2Gw-1" target="VPoRFAgZNDj3BXp9n2Gw-49" edge="1">
          <mxGeometry relative="1" as="geometry" />
        </mxCell>
        <mxCell id="VPoRFAgZNDj3BXp9n2Gw-1" value="" style="points=[];aspect=fixed;html=1;align=center;shadow=0;dashed=0;image;image=img/lib/allied_telesis/computer_and_terminals/Personal_Computer_with_Server.svg;" parent="1" vertex="1">
          <mxGeometry x="125" y="90" width="70" height="70" as="geometry" />
        </mxCell>
        <mxCell id="VPoRFAgZNDj3BXp9n2Gw-3" style="edgeStyle=orthogonalEdgeStyle;rounded=0;orthogonalLoop=1;jettySize=auto;html=1;" parent="1" source="VPoRFAgZNDj3BXp9n2Gw-2" target="VPoRFAgZNDj3BXp9n2Gw-1" edge="1">
          <mxGeometry relative="1" as="geometry">
            <Array as="points">
              <mxPoint x="170" y="190" />
              <mxPoint x="170" y="190" />
            </Array>
          </mxGeometry>
        </mxCell>
        <mxCell id="VPoRFAgZNDj3BXp9n2Gw-5" value="" style="edgeStyle=orthogonalEdgeStyle;rounded=0;orthogonalLoop=1;jettySize=auto;html=1;" parent="1" source="VPoRFAgZNDj3BXp9n2Gw-2" edge="1">
          <mxGeometry relative="1" as="geometry">
            <mxPoint x="160" y="369" as="targetPoint" />
            <Array as="points">
              <mxPoint x="160" y="330" />
              <mxPoint x="160" y="330" />
            </Array>
          </mxGeometry>
        </mxCell>
        <mxCell id="VPoRFAgZNDj3BXp9n2Gw-2" value="" style="image;html=1;image=img/lib/clip_art/computers/Server_128x128.png" parent="1" vertex="1">
          <mxGeometry x="120" y="250" width="70" height="70" as="geometry" />
        </mxCell>
        <mxCell id="VPoRFAgZNDj3BXp9n2Gw-4" value="&lt;b&gt;ISP Cache&lt;br&gt;&lt;/b&gt;10.0.0.10 www.Google.com&lt;br&gt;15.9.0.15 www.Facebook.com&lt;br&gt;87.98.76.145 www.Amazon.com" style="whiteSpace=wrap;html=1;verticalAlign=top;labelBackgroundColor=default;" parent="1" vertex="1">
          <mxGeometry x="70" y="368" width="190" height="70" as="geometry" />
        </mxCell>
        <mxCell id="VPoRFAgZNDj3BXp9n2Gw-16" style="edgeStyle=orthogonalEdgeStyle;rounded=0;orthogonalLoop=1;jettySize=auto;html=1;exitX=0.5;exitY=1;exitDx=0;exitDy=0;entryX=0.438;entryY=0.125;entryDx=0;entryDy=0;entryPerimeter=0;" parent="1" source="VPoRFAgZNDj3BXp9n2Gw-8" target="VPoRFAgZNDj3BXp9n2Gw-9" edge="1">
          <mxGeometry relative="1" as="geometry" />
        </mxCell>
        <mxCell id="VPoRFAgZNDj3BXp9n2Gw-8" value="" style="image;html=1;image=img/lib/clip_art/computers/Server_128x128.png" parent="1" vertex="1">
          <mxGeometry x="610" y="100" width="90" height="80" as="geometry" />
        </mxCell>
        <mxCell id="VPoRFAgZNDj3BXp9n2Gw-22" style="edgeStyle=orthogonalEdgeStyle;rounded=0;orthogonalLoop=1;jettySize=auto;html=1;exitX=0.5;exitY=1;exitDx=0;exitDy=0;" parent="1" source="VPoRFAgZNDj3BXp9n2Gw-9" target="VPoRFAgZNDj3BXp9n2Gw-10" edge="1">
          <mxGeometry relative="1" as="geometry" />
        </mxCell>
        <mxCell id="VPoRFAgZNDj3BXp9n2Gw-9" value="" style="image;html=1;image=img/lib/clip_art/computers/Server_128x128.png" parent="1" vertex="1">
          <mxGeometry x="620" y="210" width="80" height="80" as="geometry" />
        </mxCell>
        <mxCell id="VPoRFAgZNDj3BXp9n2Gw-10" value="" style="image;html=1;image=img/lib/clip_art/computers/Server_128x128.png" parent="1" vertex="1">
          <mxGeometry x="620" y="350" width="80" height="80" as="geometry" />
        </mxCell>
        <mxCell id="VPoRFAgZNDj3BXp9n2Gw-11" value="www.BlueStacks.com" style="text;html=1;align=center;verticalAlign=middle;resizable=0;points=[];autosize=1;strokeColor=none;fillColor=none;" parent="1" vertex="1">
          <mxGeometry x="220" y="80" width="130" height="20" as="geometry" />
        </mxCell>
        <mxCell id="VPoRFAgZNDj3BXp9n2Gw-13" value="DNS Resolver" style="text;html=1;align=center;verticalAlign=middle;resizable=0;points=[];autosize=1;strokeColor=none;fillColor=none;" parent="1" vertex="1">
          <mxGeometry x="186" y="265" width="90" height="20" as="geometry" />
        </mxCell>
        <mxCell id="VPoRFAgZNDj3BXp9n2Gw-17" value="Root Name Server( . )" style="text;html=1;align=center;verticalAlign=middle;resizable=0;points=[];autosize=1;strokeColor=none;fillColor=none;" parent="1" vertex="1">
          <mxGeometry x="608" y="84" width="127" height="18" as="geometry" />
        </mxCell>
        <mxCell id="VPoRFAgZNDj3BXp9n2Gw-19" value="Top Level &lt;br&gt;Domain" style="text;html=1;align=center;verticalAlign=middle;resizable=0;points=[];autosize=1;strokeColor=none;fillColor=none;" parent="1" vertex="1">
          <mxGeometry x="700" y="230" width="70" height="30" as="geometry" />
        </mxCell>
        <mxCell id="VPoRFAgZNDj3BXp9n2Gw-20" value=".com TLD name server" style="text;html=1;align=center;verticalAlign=middle;resizable=0;points=[];autosize=1;strokeColor=none;fillColor=none;" parent="1" vertex="1">
          <mxGeometry x="660" y="280" width="140" height="20" as="geometry" />
        </mxCell>
        <mxCell id="VPoRFAgZNDj3BXp9n2Gw-23" value="Authoritative &lt;br&gt;Name Server" style="text;html=1;align=center;verticalAlign=middle;resizable=0;points=[];autosize=1;strokeColor=none;fillColor=none;" parent="1" vertex="1">
          <mxGeometry x="700" y="370" width="90" height="30" as="geometry" />
        </mxCell>
        <mxCell id="VPoRFAgZNDj3BXp9n2Gw-24" value="" style="shape=flexArrow;endArrow=classic;startArrow=classic;html=1;rounded=0;endWidth=34;endSize=5.56;exitX=1.038;exitY=0.625;exitDx=0;exitDy=0;exitPerimeter=0;" parent="1" source="VPoRFAgZNDj3BXp9n2Gw-2" target="VPoRFAgZNDj3BXp9n2Gw-10" edge="1">
          <mxGeometry width="100" height="100" relative="1" as="geometry">
            <mxPoint x="364" y="360" as="sourcePoint" />
            <mxPoint x="464" y="260" as="targetPoint" />
          </mxGeometry>
        </mxCell>
        <mxCell id="VPoRFAgZNDj3BXp9n2Gw-26" value="www.BlueStacks.com" style="text;html=1;align=center;verticalAlign=middle;resizable=0;points=[];autosize=1;strokeColor=none;fillColor=none;rotation=15;" parent="1" vertex="1">
          <mxGeometry x="350" y="310" width="130" height="20" as="geometry" />
        </mxCell>
        <mxCell id="VPoRFAgZNDj3BXp9n2Gw-27" value="IP Address" style="text;html=1;align=center;verticalAlign=middle;resizable=0;points=[];autosize=1;strokeColor=none;fillColor=none;rotation=15;" parent="1" vertex="1">
          <mxGeometry x="345" y="340" width="70" height="20" as="geometry" />
        </mxCell>
        <mxCell id="VPoRFAgZNDj3BXp9n2Gw-28" value="" style="shape=flexArrow;endArrow=classic;startArrow=classic;html=1;rounded=0;" parent="1" source="VPoRFAgZNDj3BXp9n2Gw-13" edge="1">
          <mxGeometry width="100" height="100" relative="1" as="geometry">
            <mxPoint x="290" y="259" as="sourcePoint" />
            <mxPoint x="580" y="259" as="targetPoint" />
            <Array as="points">
              <mxPoint x="520" y="259" />
            </Array>
          </mxGeometry>
        </mxCell>
        <mxCell id="VPoRFAgZNDj3BXp9n2Gw-29" value="" style="shape=flexArrow;endArrow=classic;startArrow=classic;html=1;rounded=0;" parent="1" edge="1">
          <mxGeometry width="100" height="100" relative="1" as="geometry">
            <mxPoint x="210" y="250" as="sourcePoint" />
            <mxPoint x="600" y="140" as="targetPoint" />
          </mxGeometry>
        </mxCell>
        <mxCell id="VPoRFAgZNDj3BXp9n2Gw-30" value="www.BlueStacks&lt;b&gt;&lt;font color=&quot;#00ff80&quot;&gt;.&lt;/font&gt;&lt;font color=&quot;#3333ff&quot;&gt;com&lt;/font&gt;&lt;/b&gt;" style="text;html=1;align=center;verticalAlign=middle;resizable=0;points=[];autosize=1;strokeColor=#00FF80;fillColor=none;rotation=-15;" parent="1" vertex="1">
          <mxGeometry x="300" y="170" width="130" height="20" as="geometry" />
        </mxCell>
        <mxCell id="VPoRFAgZNDj3BXp9n2Gw-32" value=".com TLD name server" style="text;html=1;align=center;verticalAlign=middle;resizable=0;points=[];autosize=1;strokeColor=none;fillColor=none;fontColor=#000000;rotation=-15;" parent="1" vertex="1">
          <mxGeometry x="345" y="207.5" width="140" height="20" as="geometry" />
        </mxCell>
        <mxCell id="VPoRFAgZNDj3BXp9n2Gw-33" value="13 Sets&amp;nbsp;" style="text;html=1;align=center;verticalAlign=middle;resizable=0;points=[];autosize=1;strokeColor=none;fillColor=none;fontColor=#000000;" parent="1" vertex="1">
          <mxGeometry x="694" y="156" width="54" height="18" as="geometry" />
        </mxCell>
        <mxCell id="VPoRFAgZNDj3BXp9n2Gw-34" value="Stores the Request&lt;br&gt;&amp;nbsp;IP Address Information&lt;br&gt;and provides the IP address" style="text;html=1;align=center;verticalAlign=middle;resizable=0;points=[];autosize=1;strokeColor=none;fillColor=none;fontColor=#000000;" parent="1" vertex="1">
          <mxGeometry x="630" y="420" width="160" height="50" as="geometry" />
        </mxCell>
        <mxCell id="VPoRFAgZNDj3BXp9n2Gw-35" value="Forwarding query to root name server" style="text;html=1;align=center;verticalAlign=middle;resizable=0;points=[];autosize=1;strokeColor=none;fillColor=none;fontColor=#000000;rotation=-15;" parent="1" vertex="1">
          <mxGeometry x="260" y="140" width="220" height="20" as="geometry" />
        </mxCell>
        <mxCell id="VPoRFAgZNDj3BXp9n2Gw-36" value="&lt;span style=&quot;font-family: &amp;#34;calibri&amp;#34;&quot;&gt;&lt;font style=&quot;font-size: 12px&quot;&gt;10.0.10.61 www.BlueStacks.com&lt;/font&gt;&lt;/span&gt;" style="text;html=1;align=center;verticalAlign=middle;resizable=0;points=[];autosize=1;strokeColor=none;fillColor=none;fontColor=#000000;" parent="1" vertex="1">
          <mxGeometry x="75" y="455" width="180" height="20" as="geometry" />
        </mxCell>
        <mxCell id="VPoRFAgZNDj3BXp9n2Gw-40" value="1" style="ellipse;whiteSpace=wrap;html=1;fontSize=12;fontColor=#000000;strokeColor=#00FF80;" parent="1" vertex="1">
          <mxGeometry x="190" y="80" width="30" height="20" as="geometry" />
        </mxCell>
        <mxCell id="VPoRFAgZNDj3BXp9n2Gw-41" value="a" style="ellipse;whiteSpace=wrap;html=1;fontSize=12;fontColor=#000000;strokeColor=#00FF80;" parent="1" vertex="1">
          <mxGeometry x="570" y="90" width="30" height="30" as="geometry" />
        </mxCell>
        <mxCell id="VPoRFAgZNDj3BXp9n2Gw-46" value="b" style="ellipse;whiteSpace=wrap;html=1;fontSize=12;fontColor=#000000;strokeColor=#00FF80;" parent="1" vertex="1">
          <mxGeometry x="580" y="220" width="30" height="30" as="geometry" />
        </mxCell>
        <mxCell id="VPoRFAgZNDj3BXp9n2Gw-47" value="c" style="ellipse;whiteSpace=wrap;html=1;fontSize=12;fontColor=#000000;strokeColor=#00FF80;" parent="1" vertex="1">
          <mxGeometry x="560" y="330" width="30" height="30" as="geometry" />
        </mxCell>
        <mxCell id="VPoRFAgZNDj3BXp9n2Gw-49" value="Local DNS Cache" style="whiteSpace=wrap;html=1;fontSize=12;fontColor=#000000;strokeColor=#00FF80;" parent="1" vertex="1">
          <mxGeometry x="40" y="40" width="70" height="30" as="geometry" />
        </mxCell>
        <mxCell id="VPoRFAgZNDj3BXp9n2Gw-53" value="2" style="ellipse;whiteSpace=wrap;html=1;fontSize=12;fontColor=#000000;strokeColor=#00FF80;" parent="1" vertex="1">
          <mxGeometry x="20" y="10" width="30" height="30" as="geometry" />
        </mxCell>
        <mxCell id="VPoRFAgZNDj3BXp9n2Gw-54" value="3" style="ellipse;whiteSpace=wrap;html=1;fontSize=12;fontColor=#000000;strokeColor=#00FF80;" parent="1" vertex="1">
          <mxGeometry x="110" y="170" width="30" height="30" as="geometry" />
        </mxCell>
        <mxCell id="VPoRFAgZNDj3BXp9n2Gw-55" value="5" style="ellipse;whiteSpace=wrap;html=1;fontSize=12;fontColor=#000000;strokeColor=#00FF80;" parent="1" vertex="1">
          <mxGeometry x="175" y="182.5" width="25" height="25" as="geometry" />
        </mxCell>
        <mxCell id="VPoRFAgZNDj3BXp9n2Gw-58" value="4" style="ellipse;whiteSpace=wrap;html=1;fontSize=12;fontColor=#000000;strokeColor=#00FF80;" parent="1" vertex="1">
          <mxGeometry x="90" y="295" width="30" height="25" as="geometry" />
        </mxCell>
        <mxCell id="nweK6U46W45ErZhOiLEt-1" value="Forwarding &lt;br&gt;Request&amp;nbsp;&amp;nbsp;" style="text;html=1;align=center;verticalAlign=middle;resizable=0;points=[];autosize=1;strokeColor=none;fillColor=none;" parent="1" vertex="1">
          <mxGeometry x="70" y="201.5" width="70" height="32" as="geometry" />
        </mxCell>
      </root>
    </mxGraphModel>
  </diagram>
</mxfile>
